# xmcd
#
# Track frame offsets:
#	150
#	20002
#	41695
#	59317
#	75819
#	91486
#	109261
#	122349
#	138779
#	154887
#	171421
#	187124
#	203797
#
# Disc length: 3339 seconds
#
# Revision: 0
# Processed by: cddbd v1.5.2PL0 Copyright (c) Steve Scherf et al.
# Submitted via: dBpowerAMP V4.0
#
DISCID=a90d090d
DTITLE=Rockie Lynne - Rockie Lynne
DYEAR=1900
DGENRE=Country
TTITLE0=Lipstick
TTITLE1=The Only Reason
TTITLE2=More
TTITLE3=Super Country Cowboy
TTITLE4=That's Where Songs Come From
TTITLE5=Do We Still
TTITLE6=Big Time in a Small Town
TTITLE7=Don't Make this Easy on Me
TTITLE8=Love Me Like You're Gonna Lose Me
TTITLE9=Every Man's Got a Mountain
TTITLE10=Holding Back the Ocean
TTITLE11=Red, White and Blue
TTITLE12=Target Exclusive Commentary from Rockie Lynne
EXTD=
EXTT0=
EXTT1=
EXTT2=
EXTT3=
EXTT4=
EXTT5=
EXTT6=
EXTT7=
EXTT8=
EXTT9=
EXTT10=
EXTT11=
EXTT12=
PLAYORDER=
